<svg xmlns="http://www.w3.org/2000/svg" viewBox="0 0 1000 1000" role="img" aria-label="艺" data-code-point="U+827A" data-style="字玩标准隶书"><path fill="currentColor" d="M 254.78893785941978,129.9603432108703 C 163.99694771441762,142.01082842837366,113.18829386826371,144.91107103712534,102.36297632095824,138.66107103712534 C 91.53765877365277,132.41107103712534,76.75,145.52404735808358,58,178 C 43.00000000000003,203.98076211353316,46.3253175473055,223.2211431702998,67.97595264191648,235.7211431702998 C 89.62658773652748,248.22114317029968,104.20190528383296,247.97595264191636,111.7019052838329,234.98557158514984 C 119.20190528383284,221.99519052838332,167.62274158268121,208.73076923076917,256.96441418037796,195.19230769230762 C 346.3060867780747,181.65384615384602,410.78461538461534,173.9230769230768,450.4,171.9999999999999 C 480.4,171.99999999999994,552.7815184779241,181.75,667.5445554337724,201.25 C 782.3075923896206,220.75,849.6891108675447,230.5,869.6891108675447,230.5 C 889.6891108675447,230.5,917.0096189432336,200.5,951.6506350946111,140.5 C 935.6506350946111,150.5,923.6506350946111,155.5,915.6506350946111,155.5 C 907.6506350946111,155.5,835.6088625788425,147.75,699.5253175473056,132.24999999999994 C 563.4417725157685,116.74999999999994,480.4,108.99999999999994,450.4,108.99999999999994 C 410.78461538461534,110.92307692307685,345.58092800442193,117.90985799336698,254.78893785941978,129.9603432108703 z M 369.1846568401229,86.50848926526629 C 372.9744280668715,62.58081544211052,361.46309520050534,48.25310050328193,334.6506582410245,43.52534444878063 C 334.6506582410245,43.52534444878063,314.54133052141384,39.97952740790467,314.54133052141384,39.97952740790467 C 287.728893561933,35.25177135340334,276.68556256849376,47.80657777179391,281.41133754109626,77.64394666307635 C 286.13711251369875,107.48131555435879,289,123.83333333333331,290,126.69999999999999 C 291,129.56666666666666,291.5,146,291.5,176 C 291.5,206,291,222.5,290,225.5 C 289,228.5,287.5837013107367,247.4840205366184,285.75110393221024,282.45206160985515 C 284.5293723465259,305.76408899201306,298.4442577313942,314.8588208354039,327.49576008681515,309.73625714002765 C 327.49576008681515,309.73625714002765,327.49576008681515,309.73625714002765,327.49576008681515,309.73625714002765 C 356.54726244223605,304.6136934446514,370.0632784706204,292.4454233840349,368.04380817196795,273.231446958178 C 365.01460272398936,244.41048231939266,363,228.5,362,225.5 C 361,222.5,360.5,206,360.5,176 C 360.5,146,361,129.56666666666666,362,126.69999999999999 C 363,123.83333333333331,365.3948856133743,110.43616308842206,369.1846568401229,86.50848926526629 z M 715.1846568401229,88.50848926526629 C 718.9744280668715,64.58081544211052,707.4630952005053,50.25310050328193,680.6506582410245,45.52534444878063 C 680.6506582410245,45.52534444878063,660.5413305214138,41.97952740790467,660.5413305214138,41.97952740790467 C 633.728893561933,37.25177135340334,622.6855625684938,49.80657777179391,627.4113375410963,79.64394666307635 C 632.1371125136988,109.48131555435879,635,125.83333333333331,636,128.7 C 637,131.56666666666666,637.5,148,637.5,178 C 637.5,208,637,224.5,636,227.5 C 635,230.5,633.5837013107367,249.4840205366184,631.7511039322103,284.45206160985515 C 630.5293723465259,307.76408899201306,644.4442577313941,316.8588208354039,673.4957600868152,311.73625714002765 C 673.4957600868152,311.73625714002765,673.4957600868152,311.73625714002765,673.4957600868152,311.73625714002765 C 702.547262442236,306.6136934446514,716.0632784706204,294.4454233840349,714.043808171968,275.231446958178 C 711.0146027239894,246.41048231939266,709,230.5,708,227.5 C 707,224.5,706.5,208,706.5,178 C 706.5,148,707,131.56666666666666,708,128.7 C 709,125.83333333333331,711.3948856133743,112.43616308842206,715.1846568401229,88.50848926526629 z M 311.5889378594198,364.46034321087035 C 250.9302810477509,377.51082842837366,215.1882938682637,380.91107103712534,204.36297632095824,374.66107103712534 C 193.53765877365277,368.41107103712534,178.75,381.5240473580836,160,414 C 145,439.98076211353316,148.32531754730547,459.22114317029974,169.97595264191648,471.72114317029974 C 191.62658773652743,484.22114317029974,206.2019052838329,483.9759526419164,213.7019052838329,470.98557158514984 C 221.2019052838329,457.99519052838326,254.5560749160146,445.2307692307692,313.764414180378,432.6923076923076 C 372.97275344474144,420.1538461538461,422.38461538461536,412.92307692307685,462,410.99999999999994 C 492,410.99999999999994,534.1736458563777,424.49999999999994,588.5209375691329,451.5 C 588.5209375691329,451.5,588.1219056961478,451.6685109923352,588.1219056961478,451.6685109923352 C 425.437194676833,530.4408678965377,258.07393981883166,637.8351338710797,182.6295102452408,809.4418655651987 C 147.36835047646179,889.6472885217329,176.49184706138158,929.75,270,929.75 C 270,929.75,850,929.75,850,929.75 C 869.7015424726665,929.75,891.5252754809007,912.6050989681219,893.6474660164688,895.4601979362437 C 893.6474660164688,895.4601979362437,908.419494703566,776.1189014618661,908.419494703566,776.1189014618661 C 912.1047609809978,746.3461150208152,895.8952390190022,741.6538849791848,883.1064580735222,768.7914434900113 C 883.1064580735222,768.7914434900113,847.5892561296155,844.1582943261158,847.5892561296155,844.1582943261158 C 841.9053534871798,856.2194314420386,832.3967354992955,862.25,819.0634021659621,862.25 C 819.0634021659621,862.25,314.5836421380511,861.2299376132961,314.5836421380511,861.2299376132961 C 253.8773741210328,861.909979204432,238.9730028718265,837.2372212782744,269.87052839043236,787.2116638348234 C 379.27133516915865,610.0830345349323,588.558701075573,516.4408401010919,775.8335862604753,445.60741584210723 C 775.8335862604753,445.60741584210723,815.8317552744838,445.2246946292097,790.6273820247035,380.2205695898457 C 773.8244665248499,336.8844862302698,758.5666076049333,323.3875852770842,744.8538052649538,339.729866730289 C 714,376.5,507,341.99999999999994,462,341.99999999999994 C 422.38461538461536,343.9230769230769,372.2475946710887,351.40985799336704,311.5889378594198,364.46034321087035 z"/></svg>
